HIERARCHY
ROOT Hips
{
	OFFSET 62.890800 8.863803 43.568401
	CHANNELS 6 Xposition Yposition Zposition Zrotation Xrotation Yrotation
	JOINT Chest
	{
		OFFSET -0.160400 1.630001 7.806301
		CHANNELS 6 Xposition Yposition Zposition Zrotation Xrotation Yrotation
		JOINT Chest2
		{
			OFFSET 0.000000 0.000000 3.197998
			CHANNELS 6 Xposition Yposition Zposition Zrotation Xrotation Yrotation
			JOINT Neck
			{
				OFFSET 0.000000 0.000001 7.440701
				CHANNELS 6 Xposition Yposition Zposition Zrotation Xrotation Yrotation
				JOINT Head
				{
					OFFSET 0.000000 0.000000 2.173901
					CHANNELS 6 Xposition Yposition Zposition Zrotation Xrotation Yrotation
					End Site
					{
						OFFSET 0.000000 0.000001 10.420303
					}
				}
			}
			JOINT LeftCollar
			{
				OFFSET 2.426399 -1.880099 4.759399
				CHANNELS 6 Xposition Yposition Zposition Zrotation Xrotation Yrotation
				JOINT LeftShoulder
				{
					OFFSET 4.420197 0.000000 0.000000
					CHANNELS 6 Xposition Yposition Zposition Zrotation Xrotation Yrotation
					JOINT LeftElbow
					{
						OFFSET 0.000000 -0.000001 -10.347099
						CHANNELS 6 Xposition Yposition Zposition Zrotation Xrotation Yrotation
						JOINT LeftWrist
						{
							OFFSET 0.000000 -0.000001 -12.496300
							CHANNELS 6 Xposition Yposition Zposition Zrotation Xrotation Yrotation
							End Site
							{
								OFFSET 0.000000 0.000000 -2.173901
							}
						}
					}
				}
			}
			JOINT RightCollar
			{
				OFFSET -2.781502 -1.903799 5.072601
				CHANNELS 6 Xposition Yposition Zposition Zrotation Xrotation Yrotation
				JOINT RightShoulder
				{
					OFFSET -4.012100 0.000000 0.000000
					CHANNELS 6 Xposition Yposition Zposition Zrotation Xrotation Yrotation
					JOINT RightElbow
					{
						OFFSET 0.000000 -0.000001 -10.346600
						CHANNELS 6 Xposition Yposition Zposition Zrotation Xrotation Yrotation
						JOINT RightWrist
						{
							OFFSET 0.000000 -0.000001 -12.562599
							CHANNELS 6 Xposition Yposition Zposition Zrotation Xrotation Yrotation
							End Site
							{
								OFFSET 0.000000 0.000000 -2.173901
							}
						}
					}
				}
			}
		}
	}
	JOINT LeftHip
	{
		OFFSET 2.047997 -0.047200 -2.693199
		CHANNELS 6 Xposition Yposition Zposition Zrotation Xrotation Yrotation
		JOINT LeftKnee
		{
			OFFSET 0.000000 -0.000001 -18.824400
			CHANNELS 6 Xposition Yposition Zposition Zrotation Xrotation Yrotation
			JOINT LeftAnkle
			{
				OFFSET 0.000000 -0.000002 -19.078199
				CHANNELS 6 Xposition Yposition Zposition Zrotation Xrotation Yrotation
				End Site
				{
					OFFSET 0.000000 -9.342100 0.000001
				}
			}
		}
	}
	JOINT RightHip
	{
		OFFSET -2.129898 -0.022300 -2.538300
		CHANNELS 6 Xposition Yposition Zposition Zrotation Xrotation Yrotation
		JOINT RightKnee
		{
			OFFSET 0.000000 -0.000001 -18.644600
			CHANNELS 6 Xposition Yposition Zposition Zrotation Xrotation Yrotation
			JOINT RightAnkle
			{
				OFFSET 0.000000 -0.000002 -18.801399
				CHANNELS 6 Xposition Yposition Zposition Zrotation Xrotation Yrotation
				End Site
				{
					OFFSET 0.000000 -8.914600 0.000001
				}
			}
		}
	}
}
MOTION
Frames: 8
Frame Time: 0.041667
24.548096 40.373409 40.931465 -2.753415 16.890752 7.455274 -0.160402 1.630002 7.806307 -27.575132 7.972105 4.702186 0.000001 0.000004 3.198000 9.670813 -5.316569 0.295001 -0.000002 -0.000004 7.440697 18.195802 -6.868203 -15.380143 0.000001 0.000001 2.173903 3.436971 -0.668810 3.857475 2.426399 -1.880108 4.759393 -21.215841 12.000585 11.308199 4.420197 -0.000002 -0.000003 -67.754698 -19.079343 -115.069467 0.000004 0.000001 -10.347089 46.028139 -6.022495 2.229035 0.000002 0.000001 -12.496297 77.105944 3.090917 9.089707 -2.781503 -1.903805 5.072599 4.529435 17.068428 -3.315949 -4.012097 -0.000001 -0.000012 73.986966 -13.441224 135.516950 -0.000008 0.000002 -10.346603 -91.587386 -23.224048 -107.107256 0.000001 0.000000 -12.562596 653.799641 11.723846 -16.500260 2.047988 -0.047196 -2.693197 55.441861 -39.914051 15.826255 -0.000000 0.000008 -18.824400 61.634568 124.172129 -106.338703 -0.000000 -0.000002 -19.078197 12.262873 -2.048965 7.173639 -2.129902 -0.022298 -2.538297 -388.612820 -20.665098 -18.709544 -0.000001 0.000003 -18.644600 238.213311 129.564304 144.271695 -0.000004 -0.000001 -18.801397 -5.494625 -14.834232 -5.430658
24.569805 39.539001 40.813469 -3.554802 17.118377 7.350685 -0.160397 1.630009 7.806309 -26.677501 8.038390 4.624127 0.000004 0.000007 3.197999 9.413715 -5.456040 0.292312 0.000001 0.000007 7.440697 18.229459 -7.210163 -15.037652 -0.000005 0.000001 2.173910 3.475796 -0.756493 3.946246 2.426397 -1.880097 4.759401 -21.040953 12.083548 11.564505 4.420193 0.000000 0.000004 -67.939379 -18.823614 -115.569546 -0.000002 -0.000004 -10.347089 46.188065 -6.083270 2.318504 0.000001 -0.000003 -12.496298 76.750248 3.072334 9.086557 -2.781498 -1.903793 5.072605 4.817746 17.200069 -3.383368 -4.012104 0.000010 -0.000016 73.874657 -13.524958 135.518917 -0.000000 0.000003 -10.346598 -91.956852 -24.042782 -107.037336 -0.000005 0.000001 -12.562600 653.229457 12.214198 -16.443933 2.047995 -0.047197 -2.693193 60.302265 -41.502774 21.947838 0.000002 -0.000005 -18.824409 58.764885 125.513127 -104.960924 -0.000003 -0.000001 -19.078197 13.270450 -3.404598 4.936286 -2.129903 -0.022291 -2.538300 -386.833802 -20.242551 -17.146876 0.000000 0.000005 -18.644600 236.969206 129.900308 144.096050 0.000001 -0.000005 -18.801399 -5.203376 -14.493497 -5.012943
24.585194 38.670704 40.669266 -4.355012 17.192588 7.207044 -0.160401 1.630002 7.806308 -25.797782 8.172502 4.673988 0.000004 0.000006 3.197998 9.174844 -5.572862 0.289819 -0.000005 0.000001 7.440701 18.267237 -7.536497 -14.748723 -0.000008 -0.000003 2.173895 3.436959 -0.861637 4.062430 2.426397 -1.880100 4.759400 -20.760092 12.150711 11.665061 4.420191 -0.000008 0.000001 -68.175602 -18.661542 -115.963498 0.000007 -0.000004 -10.347095 46.412433 -6.117540 2.408577 0.000001 -0.000001 -12.496293 76.262149 3.067653 9.081545 -2.781506 -1.903800 5.072600 5.013694 17.318862 -3.397799 -4.012099 0.000007 -0.000007 73.838545 -13.640830 135.501159 0.000004 0.000003 -10.346599 -92.363501 -24.889305 -107.039221 -0.000001 0.000002 -12.562602 652.546219 12.621468 -16.510720 2.047997 -0.047197 -2.693192 64.840010 -42.682959 27.835362 0.000000 0.000000 -18.824402 58.059258 126.199889 -104.963834 0.000002 0.000006 -19.078201 12.971894 -6.071785 10.018410 -2.129899 -0.022295 -2.538299 -384.946893 -19.593132 -15.410360 -0.000005 0.000002 -18.644596 235.793539 130.347289 143.826954 0.000001 0.000001 -18.801403 -5.023902 -14.163386 -4.833678
24.589397 37.755802 40.502468 -5.084465 17.241583 7.181666 -0.160401 1.629999 7.806305 -24.960853 8.287713 4.597724 0.000008 0.000003 3.197999 8.940867 -5.646252 0.286544 -0.000003 -0.000004 7.440700 18.264167 -7.756446 -14.459471 -0.000006 0.000006 2.173918 3.430529 -0.949663 4.132356 2.426405 -1.880095 4.759397 -20.416069 12.218091 11.582823 4.420196 0.000009 0.000002 -68.432567 -18.727335 -116.170945 -0.000004 -0.000007 -10.347100 46.391403 -6.217465 2.471184 -0.000002 -0.000008 -12.496302 75.974885 3.034982 9.032854 -2.781502 -1.903803 5.072602 5.123935 17.360266 -3.353690 -4.012099 0.000002 -0.000003 73.886118 -13.697179 135.380114 0.000004 -0.000003 -10.346600 -92.644536 -25.571516 -106.926570 -0.000002 0.000003 -12.562595 651.992318 13.074778 -16.509233 2.047996 -0.047199 -2.693200 69.532917 -43.592535 33.735008 0.000001 0.000006 -18.824398 58.923304 126.335578 -106.136844 -0.000002 0.000002 -19.078201 12.543363 -6.742915 9.811893 -2.129898 -0.022302 -2.538299 -382.351941 -18.672489 -13.527992 0.000005 -0.000003 -18.644600 233.649679 131.075360 143.874793 -0.000004 -0.000002 -18.801399 -5.110639 -13.620009 -4.404691
24.580803 36.780506 40.316368 -5.710611 17.149703 7.256072 -0.160395 1.629996 7.806302 -24.169480 8.413474 4.391511 0.000009 0.000006 3.197999 8.721288 -5.633073 0.281781 -0.000002 -0.000005 7.440701 18.270227 -7.787108 -14.152814 -0.000006 0.000003 2.173909 3.406440 -1.035489 4.167775 2.426398 -1.880108 4.759401 -20.042111 12.211870 11.332371 4.420199 -0.000007 0.000001 -68.709893 -19.002426 -116.133652 -0.000002 -0.000004 -10.347086 46.207527 -6.262319 2.485089 -0.000002 0.000002 -12.496300 75.786474 3.000222 8.990266 -2.781502 -1.903805 5.072603 5.385309 17.333628 -3.731077 -4.012101 0.000001 -0.000005 73.792455 -13.341473 135.187653 0.000000 -0.000001 -10.346591 -92.756004 -26.161421 -106.872851 -0.000004 0.000005 -12.562602 651.594036 13.438226 -16.525059 2.047996 -0.047205 -2.693200 73.670448 -44.321709 39.054052 0.000000 -0.000002 -18.824392 61.898364 125.775365 -108.602924 -0.000003 -0.000001 -19.078197 11.580062 -6.760336 9.083909 -2.129900 -0.022303 -2.538298 -379.687675 -17.372653 -11.730269 -0.000000 -0.000003 -18.644596 231.116226 131.825260 144.110926 0.000001 -0.000003 -18.801401 -5.168780 -12.980722 -3.790876
24.553299 35.733200 40.122276 -6.104287 16.901629 7.262639 -0.160399 1.630003 7.806305 -23.579370 8.508875 4.273852 0.000009 0.000006 3.197998 8.552877 -5.549966 0.276464 -0.000000 0.000002 7.440702 18.248514 -7.669684 -13.927883 -0.000000 0.000002 2.173917 3.335943 -1.086317 4.134742 2.426400 -1.880095 4.759391 -19.652416 12.135887 11.045588 4.420192 0.000001 0.000003 -68.948465 -19.275870 -115.841716 0.000008 0.000003 -10.347099 45.913314 -6.321933 2.490038 0.000002 0.000004 -12.496297 75.644167 3.001760 8.996481 -2.781501 -1.903800 5.072598 5.183346 17.309897 -2.601416 -4.012098 0.000010 0.000006 74.066448 -14.187710 134.712040 -0.000004 0.000002 -10.346600 -92.556194 -26.168026 -106.620196 -0.000002 -0.000002 -12.562599 651.635181 13.861176 -16.530492 2.047996 -0.047194 -2.693198 77.262239 -44.689907 43.743704 0.000000 -0.000003 -18.824400 67.126136 124.521698 -112.594774 -0.000000 -0.000004 -19.078201 9.970523 -6.169819 7.834222 -2.129900 -0.022294 -2.538294 -376.475738 -15.634134 -9.766912 -0.000003 -0.000002 -18.644602 227.340838 132.719947 144.895920 0.000001 0.000002 -18.801392 -4.951430 -12.032629 -2.516758
24.505699 34.604008 39.930779 -6.275406 16.446959 7.277895 -0.160398 1.629997 7.806305 -23.079045 8.653870 4.172317 0.000007 0.000010 3.197992 8.393973 -5.422444 0.269909 -0.000001 0.000001 7.440698 18.189108 -7.376964 -13.771649 -0.000001 0.000007 2.173909 3.247892 -1.078905 4.080843 2.426405 -1.880098 4.759391 -19.252447 12.081638 10.493185 4.420189 -0.000010 -0.000005 -69.211482 -19.794221 -115.265125 -0.000003 -0.000004 -10.347092 45.464372 -6.369548 2.472927 0.000000 0.000002 -12.496297 75.601008 2.982982 9.021403 -2.781502 -1.903801 5.072598 5.203717 17.300792 -2.029830 -4.012098 0.000002 -0.000002 74.126322 -14.557387 134.364055 0.000000 -0.000002 -10.346602 -92.197513 -26.001827 -106.404334 0.000002 -0.000006 -12.562600 651.727580 13.280774 -17.030020 2.047996 -0.047203 -2.693204 80.011705 -44.945694 47.506964 0.000001 0.000001 -18.824402 74.830576 122.739934 -118.161453 -0.000001 -0.000004 -19.078201 7.763116 -5.071655 5.877994 -2.129901 -0.022302 -2.538296 -372.675994 -13.333996 -7.849988 0.000000 0.000003 -18.644600 222.461105 133.868757 146.194735 -0.000000 -0.000000 -18.801403 -4.796177 -10.782384 -1.197200
24.438801 33.386505 39.750576 -6.164422 15.803340 7.348879 -0.160397 1.630000 7.806304 -22.718857 8.844953 4.038561 0.000012 0.000007 3.198005 8.267944 -5.235471 0.262101 0.000001 0.000006 7.440698 18.028351 -6.897355 -13.654118 -0.000003 0.000004 2.173912 3.229002 -1.033676 3.985616 2.426401 -1.880102 4.759396 -18.958133 12.055672 9.793606 4.420194 -0.000002 0.000002 -69.424372 -20.413810 -114.481381 -0.000003 -0.000001 -10.347097 44.802097 -6.367380 2.427499 0.000007 0.000001 -12.496296 75.816254 2.999224 9.051665 -2.781499 -1.903798 5.072600 5.088009 17.196813 -1.405455 -4.012099 0.000008 -0.000008 74.190027 -14.840736 133.861654 0.000000 -0.000001 -10.346601 -91.699203 -25.555592 -106.120164 0.000002 -0.000005 -12.562600 652.111546 12.755068 -17.484337 2.047997 -0.047194 -2.693198 81.612291 -45.188552 50.085880 0.000003 -0.000003 -18.824402 85.602488 120.802359 -125.904729 -0.000000 -0.000001 -19.078199 4.938310 -3.507722 3.251912 -2.129896 -0.022300 -2.538292 -368.514169 -10.495751 -6.245020 0.000001 0.000004 -18.644596 216.658832 135.205220 147.874688 -0.000001 0.000004 -18.801403 -4.463566 -8.864915 0.452494
